<svg id="Layer_1" data-name="Layer 1" xmlns="http://www.w3.org/2000/svg" width="1357" height="271" viewBox="0 0 1357 271"><defs><style>.cls-1{fill:#fff;}</style></defs><path class="cls-1" d="M142.63,0,124.8,101.55,72.4,144.41,97.74,0H47L0,266.36H50.79l13-73.69,52.57-43.19L95.66,266.36h50.79L193.42,0Z"/><path class="cls-1" d="M262.91,150.1l-22,19c-16.38,14.08-25,27-26.88,37.68-1.8,10.28,1.61,17.88,10.74,17.88,11.5,0,21.19-9.89,28.42-19.42ZM243.18,266.55l9.45-26.63h-4.76c-8.63,10.66-24.81,30.44-48.21,30.44-26.19,0-37.39-19.78-32.62-46.81,5.09-28.92,21.48-49.84,53.82-75.73l49.42-39.57.94-5.32c3.1-17.51-.47-26.64-11.17-26.64s-17.47,9.13-20.57,26.64l-4.37,24.73H185.52L188,113.59C195.79,69.45,225.23,42,266.08,42s60.63,27.4,52.79,71.93L292,266.55Z"/><path class="cls-1" d="M308.72,266.54,347.63,45.85h49.59L387.9,71.73h4.76C408.39,52.33,425.26,42,443.13,42c19.84,0,38.11,15.61,30.6,58.21L444.42,266.54H394.83l26.82-152.21C424.28,99.5,422,90,410.87,90c-10.31,0-18.8,9.89-24.51,17.5l-28,159.07Z"/><path class="cls-1" d="M576.91,102.55c-3.08-9.51-9-16.36-18.15-16.36-11.51,0-18.41,12.17-21.29,28.54l-14,79.52c-2.88,16.37-.27,28.55,11.24,28.55,9.13,0,17.47-6.84,23.92-16.37Zm20.66,164H548l8.07-25.5h-4.76c-14.06,16.74-27,29.3-46.43,29.3-27.37,0-42.05-29.3-28.43-106.53l2.68-15.23c13.62-77.25,37-106.54,67.19-106.54,16.27,0,26.22,11,32.35,23.6h4.76L595,.19h49.59Z"/><path class="cls-1" d="M763.16,120.46H713.57l3.69-20.93c2.48-14.08.2-23.59-11.32-23.59-8.73,0-14.69,6.86-15.9,13.7C688,101.43,693.69,109.41,703,122l27.22,36.9c11.47,16,22,32.74,17.58,57.84-5.56,31.58-35.65,53.64-72.54,53.64s-62.7-20.17-55.32-62l3.35-19h49.59l-4.23,24c-2.41,13.7,2.19,23.59,12.91,23.59,9.92,0,15.22-7.61,16.63-15.61,2-11-4.18-19-13.14-31.2l-26.82-36.9c-11.13-15.61-20.62-31.58-16.12-57.07,4.63-26.26,32.14-54,70.63-54s59.78,25.5,53.27,62.4Z"/><path class="cls-1" d="M1149.43,266.56l-30.56-98.94h-4.76l-17.44,98.94h-49.59L1094,.19h49.61L1120.22,133H1125l57.42-87.14h53.17L1167.78,149l37.6,117.6Z"/><path class="cls-1" d="M1264.36,139.07h37.29L1308,103.3c2.74-15.6-.79-27-13.88-27s-20.65,11.42-23.41,27Zm-5.71,32.35L1252,209.1c-2.74,15.6.79,27,13.89,27s20.66-11.42,23.42-27l3.43-19.4h53.17c-8,45.27-43.19,80.66-86,80.66s-65.59-30.82-52.17-106.93l2.55-14.46c13.42-76.11,47-106.93,89.87-106.93s66.38,30.82,53,106.93l-4,22.45Z"/><path class="cls-1" d="M750.05,266.54,797,.19h49.59L834.73,67.53h4.76C855.33,51.92,869.78,42,887.63,42c19.84,0,34.94,15.61,27.42,58.22L885.73,266.53H836.14l27.44-155.64c2.62-14.83.33-24.36-10.78-24.36-10.32,0-18.81,9.89-24.51,17.51l-28.65,162.5Z"/><path class="cls-1" d="M1001.26,150.1l-22,19c-16.38,14.08-25,27-26.88,37.68-1.8,10.28,1.61,17.88,10.74,17.88,11.51,0,21.19-9.89,28.42-19.42ZM981.53,266.55,991,239.92h-4.76c-8.63,10.66-24.81,30.44-48.21,30.44-26.19,0-37.39-19.78-32.62-46.81,5.09-28.92,21.48-49.84,53.82-75.73l49.42-39.57.94-5.32c3.08-17.51-.47-26.64-11.17-26.64s-17.49,9.13-20.57,26.64l-4.37,24.73H923.87l2.49-14.07C934.14,69.45,963.58,42,1004.43,42s60.63,27.4,52.79,71.93l-26.9,152.58Z"/></svg>